# xmcd
#
# Track frame offsets: 
#        150
#        13971
#        29546
#        40982
#        56710
#        70626
#        82289
#        93948
#        117436
#        136252
#        150253
#        171770
#        190990
#        207669
#        223569
#        237808
#        258224
#
# Disc length: 3697 seconds
#
# Revision: 0
# Processed by: cddbd v1.5.2PL0 Copyright (c) Steve Scherf et al.
# Submitted via: ExactAudioCopy v0.95b3
#
DISCID=f00e6f11
DTITLE=Harvey Mandel - The Snake. Shangrenade
DYEAR=1972
DGENRE=Blues
TTITLE0=The Divining Rod
TTITLE1=Pegasus
TTITLE2=Lynda Love
TTITLE3=Peruvian Flake
TTITLE4=The Snake
TTITLE5=Uno Ino
TTITLE6=Ode To The Owl
TTITLE7=Levitation
TTITLE8=Bite The Electric Eel
TTITLE9=What The Funk
TTITLE10=Fish Walk
TTITLE11=Sugarloaf
TTITLE12=Midnight Sun
TTITLE13=Million Dollar Feeling
TTITLE14=Green Apple Quickstep
TTITLE15=Frenzy
TTITLE16=Shangrenade
EXTD=
EXTT0=
EXTT1=
EXTT2=
EXTT3=
EXTT4=
EXTT5=
EXTT6=
EXTT7=
EXTT8=
EXTT9=
EXTT10=
EXTT11=
EXTT12=
EXTT13=
EXTT14=
EXTT15=
EXTT16=
PLAYORDER=
